<svg width="126" height="143" viewBox="0 0 126 143" fill="none" xmlns="http://www.w3.org/2000/svg">
<circle cx="68.25" cy="57" r="57" fill="#F4F4F4"/>
<g clip-path="url(#clip0)">
<path d="M24 59.25L30.75 49.5H79.5L86.25 59.25L85.5 118.5L80.25 126L72 127.5V88.5L50.25 63.75H24V59.25Z" fill="#F4F4F4"/>
<path d="M12.001 68.25L17.251 63H49.501V79.5L56.251 87.75H72.001L71.251 134.25L65.251 139.5H15.751L10.501 132L12.001 68.25Z" fill="white"/>
<path d="M75.3304 48H33.8674C27.5524 48 22.4149 53.1375 22.4149 59.451V61.683H20.1829C13.8694 61.683 8.73193 66.819 8.73193 73.134V130.56C8.73193 136.873 13.8694 142.011 20.1829 142.011H61.6474C67.9609 142.011 73.0984 136.873 73.0984 130.56V128.328H75.3304C81.6439 128.328 86.7814 123.192 86.7814 116.877V59.451C86.7814 53.1375 81.6439 48 75.3304 48ZM61.6474 139.012H20.1829C15.5239 139.012 11.7319 135.222 11.7319 130.561V73.134C11.7319 68.475 15.5224 64.683 20.1829 64.683H48.7444V77.9025C48.7444 84.216 53.8819 89.3535 60.1954 89.3535H70.0984V130.56C70.0969 135.22 66.3064 139.012 61.6474 139.012ZM51.7444 67.209L68.3149 86.3535H60.1954C55.5364 86.3535 51.7444 82.563 51.7444 77.9025V67.209ZM83.7814 116.877C83.7814 121.536 79.9909 125.328 75.3304 125.328H73.0984V87.8535C73.0984 87.4935 72.9679 87.144 72.7324 86.8725L51.3784 62.202C51.0949 61.872 50.6794 61.683 50.2444 61.683H25.4149V59.451C25.4149 54.7905 29.2069 51 33.8674 51H75.3304C79.9894 51 83.7814 54.7905 83.7814 59.451V116.877Z" fill="#B9B9B9"/>
<rect opacity="0.55" x="15.7495" y="94.5" width="49.5" height="4.5" rx="1.5" fill="#B9B9B9"/>
<rect opacity="0.5" x="15.749" y="102.001" width="16.5" height="4.5" rx="1.5" fill="#CDCDCD"/>
<rect opacity="0.55" x="15.7495" y="112.499" width="49.5" height="4.5" rx="1.5" fill="#B9B9B9"/>
<rect opacity="0.5" x="15.749" y="119.999" width="16.5" height="4.5" rx="1.5" fill="#CDCDCD"/>
</g>
<path d="M89.8521 51.1385L100.347 40.5005" stroke="#B9B9B9" stroke-width="1.5"/>
<path d="M82.943 46.0756L86.2353 31.4992" stroke="#B9B9B9" stroke-width="1.5"/>
<path d="M93.7512 56.85L101.215 56.4992L108.678 56.1485" stroke="#B9B9B9" stroke-width="1.5"/>
<defs>
<clipPath id="clip0">
<rect width="94.0125" height="94.0125" fill="white" transform="translate(0.75 48)"/>
</clipPath>
</defs>
</svg>
